<svg xmlns="http://www.w3.org/2000/svg" xmlns:xlink="http://www.w3.org/1999/xlink" preserveAspectRatio="xMidYMid meet" version="1.0" viewBox="6.0 2.0 119.0 183.8" zoomAndPan="magnify" style="fill: rgb(0, 0, 0);" role="img" aria-label="Empty Jar"><defs><linearGradient xmlns:xlink="http://www.w3.org/1999/xlink" id="__id51_sl6l9qcdqe" spreadMethod="reflect" x1="-.352" x2=".332" xlink:actuate="onLoad" xlink:show="other" xlink:type="simple" y1=".594" y2=".668"><stop offset="0" style="stop-color: rgb(217, 217, 217);"></stop><stop offset=".9" style="stop-color: rgb(255, 255, 255);"></stop><stop offset="1" style="stop-color: rgb(255, 255, 255);"></stop></linearGradient></defs><g fill-opacity=".164" fill-rule="evenodd" stroke="#000" stroke-linecap="round" stroke-linejoin="round" stroke-width="1.867"><g id="__id52_sl6l9qcdqe"><path d="m65.913 23.177c-31.355 0-56.921 11.212-57.948 25.192h-0.03116v110.49c0 14.384 25.973 26.049 57.98 26.049s57.98-11.665 57.98-26.049v-110.49h-0.03112c-1.0273-13.98-26.593-25.192-57.948-25.192z" style="fill: rgb(217, 217, 217);"></path></g><path d="m123.89 157.69c-9.0544-14.987-36.697-15.862-57.98-16.846-31.355 0-56.921 7.2883-57.948 16.376" stroke-opacity=".246" style="fill: none;"></path></g><path d="m64.913 23.177c-31.355 0-56.921 11.212-57.948 25.192h-0.03116v110.49c0 14.384 25.973 26.049 57.98 26.049s57.98-11.665 57.98-26.049v-110.49h-0.03112c-1.0273-13.98-26.593-25.192-57.948-25.192z" fill-rule="evenodd" opacity=".434" stroke="#000" stroke-linecap="round" stroke-linejoin="round" stroke-width="1.867" style="fill: url(&quot;#__id51_sl6l9qcdqe&quot;);"></path><g id="__id53_sl6l9qcdqe" stroke="#000" stroke-width="1.757" style="fill: #E63946;"><path d="m118.3 22.352c-40.848-2.2901-60.268-4.0445-106.39 0v9.7347c-0.00153 0.060818 0 0.12011 0 0.18109 0 10.752 23.831 19.47 53.194 19.47s53.194-8.7172 53.194-19.47c0-0.060978 0.001556-0.12027 0-0.18109v-9.7347z" style="fill: inherit;"></path><path d="m118.29 22.357c0 10.752-23.831 19.479-53.194 19.479s-53.194-8.7265-53.194-19.479 23.831-19.479 53.194-19.479 53.194 8.7265 53.194 19.479z" style="fill: inherit;"></path></g></svg>