<?xml version="1.0" encoding="UTF-8"?><svg xmlns="http://www.w3.org/2000/svg" xmlns:xlink="http://www.w3.org/1999/xlink" height="605.6" preserveAspectRatio="xMidYMid meet" version="1.0" viewBox="-17.5 -24.9 537.3 605.6" width="537.3" zoomAndPan="magnify"><defs><linearGradient gradientUnits="userSpaceOnUse" id="a" x1="62.817" x2="162.82" xlink:actuate="onLoad" xlink:show="other" xlink:type="simple" xmlns:xlink="http://www.w3.org/1999/xlink"><stop offset=".006" stop-color="#17592a"/><stop offset="1" stop-color="#4d9d22"/></linearGradient><linearGradient gradientUnits="userSpaceOnUse" id="b" x1="167.48" x2="231.98" xlink:actuate="onLoad" xlink:show="other" xlink:type="simple" xmlns:xlink="http://www.w3.org/1999/xlink"><stop offset=".006" stop-color="#4d9d22"/><stop offset="1" stop-color="#17592a"/></linearGradient><linearGradient gradientUnits="userSpaceOnUse" id="c" x1="130.98" x2="213.48" xlink:actuate="onLoad" xlink:show="other" xlink:type="simple" xmlns:xlink="http://www.w3.org/1999/xlink"><stop offset=".006" stop-color="#17592a"/><stop offset="1" stop-color="#4d9d22"/></linearGradient><linearGradient gradientUnits="userSpaceOnUse" id="d" x1="199.23" x2="261.82" xlink:actuate="onLoad" xlink:show="other" xlink:type="simple" xmlns:xlink="http://www.w3.org/1999/xlink"><stop offset=".006" stop-color="#17592a"/><stop offset="1" stop-color="#4d9d22"/></linearGradient><linearGradient gradientUnits="userSpaceOnUse" id="e" x1="233.48" x2="294.48" xlink:actuate="onLoad" xlink:show="other" xlink:type="simple" xmlns:xlink="http://www.w3.org/1999/xlink"><stop offset=".006" stop-color="#17592a"/><stop offset="1" stop-color="#4d9d22"/></linearGradient><linearGradient gradientUnits="userSpaceOnUse" id="f" x1="316.98" x2="416.98" xlink:actuate="onLoad" xlink:show="other" xlink:type="simple" xmlns:xlink="http://www.w3.org/1999/xlink"><stop offset=".006" stop-color="#4d9d22"/><stop offset="1" stop-color="#17592a"/></linearGradient><linearGradient gradientUnits="userSpaceOnUse" id="i" x1="265.48" x2="323.98" xlink:actuate="onLoad" xlink:show="other" xlink:type="simple" xmlns:xlink="http://www.w3.org/1999/xlink"><stop offset=".006" stop-color="#4d9d22"/><stop offset="1" stop-color="#17592a"/></linearGradient><radialGradient cx="393.29" cy="113.2" gradientUnits="userSpaceOnUse" id="g" r="97.638" xlink:actuate="onLoad" xlink:show="other" xlink:type="simple" xmlns:xlink="http://www.w3.org/1999/xlink"><stop offset=".006" stop-color="#c5870f"/><stop offset=".798" stop-color="#eee600"/></radialGradient><radialGradient cx="382.24" cy="255.39" gradientTransform="matrix(1 0 -.2493 1 66.093 0)" gradientUnits="userSpaceOnUse" id="h" r="97.638" xlink:actuate="onLoad" xlink:show="other" xlink:type="simple" xmlns:xlink="http://www.w3.org/1999/xlink"><stop offset=".006" stop-color="#c5870f"/><stop offset=".798" stop-color="#eee600"/></radialGradient><radialGradient cx="241.96" cy="36.5" gradientTransform="matrix(1.3964 -.5704 .5456 .7768 -160.19 195.16)" gradientUnits="userSpaceOnUse" id="j" r="87.281" xlink:actuate="onLoad" xlink:show="other" xlink:type="simple" xmlns:xlink="http://www.w3.org/1999/xlink"><stop offset=".006" stop-color="#c5870f"/><stop offset=".798" stop-color="#eee600"/></radialGradient><radialGradient cx="208.29" cy="235.2" gradientUnits="userSpaceOnUse" id="k" r="97.638" xlink:actuate="onLoad" xlink:show="other" xlink:type="simple" xmlns:xlink="http://www.w3.org/1999/xlink"><stop offset=".006" stop-color="#c5870f"/><stop offset=".798" stop-color="#eee600"/></radialGradient><radialGradient cx="-3.16" cy="221.2" gradientTransform="matrix(.6839 0 -.1498 1 104.23 0)" gradientUnits="userSpaceOnUse" id="l" r="97.641" xlink:actuate="onLoad" xlink:show="other" xlink:type="simple" xmlns:xlink="http://www.w3.org/1999/xlink"><stop offset=".006" stop-color="#c5870f"/><stop offset=".798" stop-color="#eee600"/></radialGradient></defs><path d="m158.15 361.17s-44-27.333-64-26.667-31.333 24-31.333 24 18.347-13.976 28-8c42 26 72 26.667 72 26.667" fill="url(#a)" stroke="#165829" stroke-linejoin="round" stroke-width="4"/><path d="m159.48 369s-6.5-0.5-30-11.833-32.667-19-43.5-15.667-18 11-18 11" fill="none" stroke="#165829" stroke-linejoin="round"/><path d="m167.48 384.75s27.083-32.917 38.667-35.583 25.833 13.333 25.833 13.333-20.267-9.39-24-1.75c-10.75 22-32.25 51-32.25 51" fill="url(#b)" stroke="#165829" stroke-linejoin="round" stroke-width="3"/><path d="m172.48 395.5s9-14 17-23 14.667-18.667 20.5-19 14.5 4.5 14.5 4.5" fill="none" stroke="#165829" stroke-linejoin="round"/><path d="m213.48 481s-34.5-52.5-56-46c-17.236 5.211-26.5 21.5-26.5 21.5s20.833-22.224 35.5 0c16.5 25 46 53 46 53" fill="url(#c)" stroke="#165829" stroke-linejoin="round" stroke-width="3"/><path d="m211.48 494.5s-16.333-13.833-26.667-31.333-16.333-22-24.333-22.667-21.5 7.5-21.5 7.5" fill="none" stroke="#165829" stroke-linejoin="round"/><path d="m261.82 423s-31.583-43.5-41.833-43.75-20.75 7-20.75 7 13-3.916 21 2.75 39.5 61 39.5 61" fill="url(#d)" stroke="#165829" stroke-linejoin="round" stroke-width="3"/><path d="m258.98 434s-4-2.667-15.167-22.5-19.667-26.833-24.667-28.666-11.666 1.166-11.666 1.166" fill="none" stroke="#165829" stroke-linejoin="round"/><path d="m294.48 394s-24-33.5-38.5-39-22.5 6-22.5 6 12-2.5 29.5 22 26.5 34.5 26.5 34.5" fill="url(#e)" stroke="#165829" stroke-linejoin="round" stroke-width="3"/><path d="m290.98 404.5s-0.833-3.666-20.5-25.5c-13.787-15.306-7.144-12.379-18.667-18.833-8.333-4.667-14.833-0.667-14.833-0.667" fill="none" stroke="#165829" stroke-linejoin="round"/><path d="m326.48 415.5s35-31 53-29 37.5 36 37.5 36-22.85-32.546-38.5-21c-30.5 22.5-61.5 42.5-61.5 42.5" fill="url(#f)" stroke="#165829" stroke-linejoin="round" stroke-width="3"/><path d="m324.98 427s15.833-8.334 30.833-20.5 19.668-14 26.334-14 26.333 17 26.333 17" fill="none" stroke="#165829" stroke-linejoin="round"/><path d="m69.735 220.38s46.249 25.622 50.749 54.122c2.318 14.684 27.5 48 44 103.5 24.5 67 14.5 50 25 166.5" fill="none" stroke="#165829" stroke-linejoin="round" stroke-width="4"/><path d="m216.48 231.5s-17 65.5-15 111 6 49 10 83c7.5 34-4 151-4 151" fill="none" stroke="#165829" stroke-linejoin="round" stroke-width="4"/><path d="m397.48 111.5s-78.5-10.5-81 64 28.5 64 29 142-66 214-66 214" fill="none" stroke="#165829" stroke-linejoin="round" stroke-width="4"/><path d="m385.86 254.56s-48.381-15.562-71.381 2.938-13 57.5-11 78-42 212-42 212" fill="none" stroke="#165829" stroke-linejoin="round" stroke-width="4"/><path d="m403.53 96.652s61.897-89.487 56.323-47.327c44.864-1.85-48.46 56.577-48.46 56.577s93.756-48.562 72.616-14.8c35.774 22.684-72.068 21.276-72.068 21.276s104.36-2.077 71.955 20.571c25.087 35.54-74.815-10.858-74.815-10.858s103.16 49.312 53.212 51.625c3.136 45.646-58.299-46.537-58.299-46.537s60.541 91.874 16.139 74.761c-17.073 39.721-25.852-71.901-25.852-71.901s0.765 105.7-24.323 71.901c-37.631 21.603 14.147-74.761 14.147-74.761s-64.67 83.123-62.231 44.795c-39.372 0.697 55.756-52.658 55.756-52.658s-98.055 43.94-74.928 10.176c-36.54-19.426 74.003-19.889 74.003-19.889s-100.37-16.651-68.454-32.376c-11.1-34.689 74.6 22.622 74.6 22.622s-64.996-74.541-28.92-68.99c12.487-34.227 36.188 64.406 36.188 64.406s-3.343-103.3 17.471-74.163c28.212-26.363-4.06 75.55-4.06 75.55z" fill="url(#g)" stroke="#000"/><g id="change1_1"><path d="m411.94 112.38a17.661 17.661 0 1 0 -35.322 0 17.661 17.661 0 1 0 35.322 0" fill="#583307" stroke="#000"/></g><path d="m398.48 75.5-2 19" fill="none" stroke="#000"/><path d="m408.15 100.83 12.001-12.667" fill="none" stroke="#000"/><path d="m412.15 109.5 13.667-4" fill="none" stroke="#000"/><path d="m407.15 125.5 8.001 8" fill="none" stroke="#000"/><path d="m411.82 117.5 12.333 3.334" fill="none" stroke="#000"/><path d="m389.15 130.17-3.332 12.333" fill="none" stroke="#000"/><path d="m381.48 123.5-9.666 8.667" fill="none" stroke="#000"/><path d="m376.48 115.17-18 3.333" fill="none" stroke="#000"/><path d="m377.82 104.17-12.668-5" fill="none" stroke="#000"/><path d="m385.15 96.5-5.666-11.666" fill="none" stroke="#000"/><path d="m398.98 129.5 4.5 12.5" fill="none" stroke="#000"/><path d="m399.04 238.84s84.209-89.487 68.123-47.327c45.325-1.85-62.565 56.577-62.565 56.577s105.86-48.563 76.305-14.801c30.119 22.684-77.373 21.276-77.373 21.276s104.88-2.077 66.826 20.571c16.226 35.54-72.107-10.858-72.107-10.858s90.868 49.312 40.34 51.625c-8.245 45.646-46.695-46.537-46.695-46.537s37.633 91.874-2.502 74.761c-26.977 39.721-7.925-71.901-7.925-71.901s-25.589 105.7-42.25 71.901c-43.017 21.603 32.788-74.761 32.788-74.761s-85.396 83.123-73.4 44.795c-39.547 0.697 68.885-52.658 68.885-52.658s-109.01 43.94-77.465 10.176c-31.697-19.426 78.961-19.889 78.961-19.889s-96.215-16.651-60.381-32.376c-2.451-34.689 68.959 22.622 68.959 22.622s-46.411-74.541-11.719-68.99c21.021-34.227 20.129 64.406 20.129 64.406s22.414-103.3 35.962-74.163c34.786-26.363-22.896 75.551-22.896 75.551z" fill="url(#h)" stroke="#000"/><g id="change1_2"><path d="m403.52 254.56c-2.432 9.754-12.311 17.661-22.063 17.661s-15.69-7.907-13.258-17.661 12.311-17.661 22.064-17.661 15.689 7.907 13.257 17.661z" fill="#583307" stroke="#000"/></g><path d="m399.26 217.68-6.737 19" fill="none" stroke="#000"/><path d="m402.61 243.02 15.161-12.667" fill="none" stroke="#000"/><path d="m404.45 251.68 14.664-4" fill="none" stroke="#000"/><path d="m395.46 267.68 6.007 8" fill="none" stroke="#000"/><path d="m402.12 259.68 11.502 3.334" fill="none" stroke="#000"/><path d="m376.3 272.35-6.408 12.333" fill="none" stroke="#000"/><path d="m370.29 265.68-11.828 8.667" fill="none" stroke="#000"/><path d="m367.37 257.35-18.831 3.333" fill="none" stroke="#000"/><path d="m371.45 246.35-11.422-5" fill="none" stroke="#000"/><path d="m380.69 238.68-2.756-11.666" fill="none" stroke="#000"/><path d="m386.3 271.68 1.383 12.5" fill="none" stroke="#000"/><path d="m267.82 354.83s30.001-39.25 38.834-44.167 17.333 19.333 17.333 19.333-8-14.75-13.5-9c-8.773 9.173-45 65.5-45 65.5" fill="url(#i)" stroke="#165829" stroke-linejoin="round" stroke-width="3"/><path d="m267.48 368.5s6.5-9.667 13.667-19.667 17.038-23.703 24-30.333c7-6.667 13.333 1.5 13.333 1.5" fill="none" stroke="#165829" stroke-linejoin="round"/><path d="m200.48 84.5s20 17.5 47 76 22.5 159.5 19 205-19 215-19 215" fill="none" stroke="#165829" stroke-linejoin="round" stroke-width="4"/><path d="m202.31 68.788s33.622-93.701 47.226-61.582c55.101-24.159-32.899 63.997-32.899 63.997s93.35-81.526 83.425-47.302c55.72-2.488-79.584 51.52-79.584 51.52s129.26-54.652 99.852-22.402c48.649 11.888-98.686 30.605-98.686 30.605s152.83-18.357 91.601 8.718c26.175 30.098-95.469-2.591-95.469-2.591s120.38 32.931 56.605 43.686c-1.94 36.288-67.335-36.748-67.335-36.748s52.502 73.009 4.703 62.331c-36.438 34.188-18.8-59.128-18.8-59.128s-40.188 90.695-55.836 62.836c-48.807 20.559 43.917-64.995 43.917-64.995s-100.97 80.508-88.567 45.27c-55.086 5.141 82.676-51.543 82.676-51.543s-133.41 39.61-101.24 12.419c-30.773-18.43 104.15-22.327 104.15-22.327s-117.49-18.622-69.746-33.163c-1.104-30.134 76.582 26.274 76.582 26.274s-54.551-70.029-14.36-60.407c22.361-32.693 31.781 54.532 31.781 54.532z" fill="url(#j)" stroke="#000"/><g id="change1_3"><path d="m220.48 75.42c4.756 6.773-1.258 16.295-13.432 21.268-12.176 4.974-25.902 3.515-30.659-3.259s1.257-16.295 13.433-21.268c12.174-4.973 25.901-3.514 30.658 3.259z" fill="#583307" stroke="#000"/></g><path d="m185.69 56.673 6.769 14.214" fill="none" stroke="#000"/><path d="m210.11 69.336 8.803-14.914" fill="none" stroke="#000"/><path d="m219.33 73.315 15.109-9.746" fill="none" stroke="#000"/><path d="m220.89 86.976 13.888 1.475" fill="none" stroke="#000"/><path d="m222.82 79.04 17.022-3.974" fill="none" stroke="#000"/><path d="m200.7 99.393 1.854 10.265" fill="none" stroke="#000"/><path d="m187.88 98.672-7.839 10.948" fill="none" stroke="#000"/><path d="m177.57 95.436-20.843 11.492" fill="none" stroke="#000"/><path d="m173.87 87.117-18.25 2.986" fill="none" stroke="#000"/><path d="m179.29 78.054-12.764-5.212" fill="none" stroke="#000"/><path d="m212.65 93.917 11.713 6.386" fill="none" stroke="#000"/><path d="m218.53 218.65s61.897-89.487 56.323-47.327c44.864-1.85-48.46 56.577-48.46 56.577s93.756-48.563 72.615-14.801c35.774 22.684-72.068 21.276-72.068 21.276s104.36-2.077 71.955 20.571c25.087 35.54-74.815-10.858-74.815-10.858s103.16 49.312 53.212 51.625c3.136 45.646-58.299-46.537-58.299-46.537s60.541 91.874 16.139 74.761c-17.073 39.721-25.852-71.901-25.852-71.901s0.765 105.7-24.323 71.901c-37.631 21.603 14.147-74.761 14.147-74.761s-64.67 83.123-62.231 44.795c-39.372 0.697 55.756-52.658 55.756-52.658s-98.055 43.94-74.928 10.176c-36.54-19.426 74.003-19.889 74.003-19.889s-100.37-16.651-68.454-32.376c-11.1-34.689 74.6 22.622 74.6 22.622s-64.996-74.541-28.92-68.99c12.487-34.227 36.188 64.406 36.188 64.406s-3.343-103.3 17.471-74.163c28.213-26.362-4.059 75.551-4.059 75.551z" fill="url(#k)" stroke="#000"/><g id="change1_4"><path d="m226.94 234.38a17.661 17.661 0 1 0 -35.322 0 17.661 17.661 0 1 0 35.322 0" fill="#583307" stroke="#000"/></g><path d="m213.48 197.5-2 19" fill="none" stroke="#000"/><path d="m223.15 222.83 12-12.667" fill="none" stroke="#000"/><path d="m227.15 231.5 13.666-4" fill="none" stroke="#000"/><path d="m222.15 247.5 8 8" fill="none" stroke="#000"/><path d="m226.82 239.5 12.333 3.334" fill="none" stroke="#000"/><path d="m204.15 252.17-3.333 12.333" fill="none" stroke="#000"/><path d="m196.48 245.5-9.666 8.667" fill="none" stroke="#000"/><path d="m191.48 237.17-18 3.333" fill="none" stroke="#000"/><path d="m192.82 226.17-12.667-5" fill="none" stroke="#000"/><path d="m200.15 218.5-5.667-11.666" fill="none" stroke="#000"/><path d="m213.98 251.5 4.5 12.5" fill="none" stroke="#000"/><path d="m78.417 204.65s55.735-89.487 45.609-47.327c30.961-1.85-41.616 56.577-41.616 56.577s71.395-48.563 51.88-14.801c21.07 22.684-52.476 21.276-52.476 21.276s71.686-2.077 46.131 20.571c11.836 35.54-49.542-10.858-49.542-10.858s63.173 49.312 28.662 51.625c-4.69 45.646-32.903-46.537-32.903-46.537s27.648 91.874-0.159 74.761c-17.625 39.721-6.912-71.901-6.912-71.901s-15.306 105.7-27.403 71.902c-28.972 21.603 20.872-74.761 20.872-74.761s-56.677 83.123-49.27 44.795c-27.033 0.697 46.019-52.658 46.019-52.658s-73.643 43.94-52.77 10.176c-22.082-19.426 53.592-19.889 53.592-19.889s-66.152-16.651-41.97-32.376c-2.396-34.689 47.633 22.622 47.633 22.622s-33.291-74.541-9.448-68.99c13.667-34.227 15.105 64.406 15.105 64.406s13.184-103.3 23.055-74.163c23.244-26.363-14.089 75.55-14.089 75.55z" fill="url(#l)" stroke="#000"/><g id="change1_5"><path d="m81.814 220.38c-1.461 9.754-8.053 17.661-14.723 17.661s-10.896-7.907-9.435-17.661 8.052-17.661 14.724-17.661 10.895 7.908 9.434 17.661z" fill="#583307" stroke="#000"/></g><path d="m78.132 183.5-4.213 19" fill="none" stroke="#000"/><path d="m80.949 208.83 10.105-12.667" fill="none" stroke="#000"/><path d="m82.387 217.5 9.946-4" fill="none" stroke="#000"/><path d="m76.571 233.5 4.274 8" fill="none" stroke="#000"/><path d="m80.962 225.5 7.936 3.334" fill="none" stroke="#000"/><path d="m63.562 238.17-4.126 12.333" fill="none" stroke="#000"/><path d="m59.317 231.5-7.91 8.667" fill="none" stroke="#000"/><path d="m57.146 223.17-12.811 3.333" fill="none" stroke="#000"/><path d="m59.704 212.17-7.914-5" fill="none" stroke="#000"/><path d="m65.868 204.5-2.128-11.666" fill="none" stroke="#000"/><path d="m70.387 237.5 1.206 12.5" fill="none" stroke="#000"/></svg>